<?xml version="1.0" encoding="UTF-8"?>
<svg width="700pt" height="700pt" version="1.1" viewBox="0 0 700 700" xmlns="http://www.w3.org/2000/svg">
 <path d="m127.57 344.93 105 105c3.2852 3.3125 7.7578 5.1758 12.426 5.1758s9.1406-1.8633 12.426-5.1758c3.3125-3.2852 5.1758-7.7578 5.1758-12.426s-1.8633-9.1406-5.1758-12.426l-75.25-75.074h307.82c23.207 0 45.461-9.2188 61.871-25.629s25.629-38.664 25.629-61.871v-157.5c0-6.2539-3.3359-12.031-8.75-15.156s-12.086-3.125-17.5 0-8.75 8.9023-8.75 15.156v157.5c0 13.926-5.5312 27.277-15.375 37.125-9.8477 9.8438-23.199 15.375-37.125 15.375h-307.82l75.25-75.074c4.4375-4.4414 6.1719-10.91 4.5469-16.973-1.625-6.0664-6.3594-10.801-12.426-12.426-6.0625-1.625-12.531 0.10938-16.973 4.5469l-105 105c-3.3125 3.2852-5.1758 7.7578-5.1758 12.426s1.8633 9.1406 5.1758 12.426z"/>
</svg>
